<?xml version="1.0" encoding="UTF-8" standalone="no"?>
<!-- Creator: CorelDRAW -->
<svg
   xmlns:dc="http://purl.org/dc/elements/1.1/"
   xmlns:cc="http://web.resource.org/cc/"
   xmlns:rdf="http://www.w3.org/1999/02/22-rdf-syntax-ns#"
   xmlns:svg="http://www.w3.org/2000/svg"
   xmlns="http://www.w3.org/2000/svg"
   xmlns:xlink="http://www.w3.org/1999/xlink"
   xmlns:sodipodi="http://sodipodi.sourceforge.net/DTD/sodipodi-0.dtd"
   xmlns:inkscape="http://www.inkscape.org/namespaces/inkscape"
   xml:space="preserve"
   width="210mm"
   height="297mm"
   style="shape-rendering:geometricPrecision; text-rendering:geometricPrecision; image-rendering:optimizeQuality; fill-rule:evenodd; clip-rule:evenodd"
   viewBox="0 0 210 297"
   id="svg2"
   sodipodi:version="0.32"
   inkscape:version="0.44+devel"
   sodipodi:docname="monitor.svg"
   inkscape:output_extension="org.inkscape.output.svg.inkscape"
   sodipodi:docbase="C:\Documents and Settings\Molumen\Desktop"
   sodipodi:modified="true"><metadata
   id="metadata83"><rdf:RDF><cc:Work
       rdf:about=""><dc:format>image/svg+xml</dc:format><dc:type
         rdf:resource="http://purl.org/dc/dcmitype/StillImage" /><dc:title>CRT monitor</dc:title><dc:date>12 10 2006</dc:date><dc:creator><cc:Agent><dc:title>Lumen Design Studio</dc:title></cc:Agent></dc:creator><cc:license
         rdf:resource="http://web.resource.org/cc/PublicDomain" /><dc:description>a CRT monitor</dc:description><dc:subject><rdf:Bag><rdf:li>monitor</rdf:li><rdf:li>computer</rdf:li><rdf:li>screen</rdf:li><rdf:li>crt</rdf:li><rdf:li></rdf:li></rdf:Bag></dc:subject><dc:contributor><cc:Agent><dc:title>Lumen Design Studio</dc:title></cc:Agent></dc:contributor></cc:Work><cc:License
       rdf:about="http://web.resource.org/cc/PublicDomain"><cc:permits
         rdf:resource="http://web.resource.org/cc/Reproduction" /><cc:permits
         rdf:resource="http://web.resource.org/cc/Distribution" /><cc:permits
         rdf:resource="http://web.resource.org/cc/DerivativeWorks" /></cc:License></rdf:RDF></metadata><sodipodi:namedview
   inkscape:window-height="1144"
   inkscape:window-width="1600"
   inkscape:pageshadow="2"
   inkscape:pageopacity="0.0"
   guidetolerance="10.0"
   gridtolerance="10.0"
   objecttolerance="10.0"
   borderopacity="1.0"
   bordercolor="#666666"
   pagecolor="#ffffff"
   id="base"
   inkscape:zoom="1.0132605"
   inkscape:cx="433.41566"
   inkscape:cy="441.34173"
   inkscape:window-x="-4"
   inkscape:window-y="-4"
   inkscape:current-layer="svg2" />
 <defs
   id="defs4">
  <style
   type="text/css"
   id="style6">
   
    .str3 {stroke:#98979B;stroke-width:0.1764}
    .str2 {stroke:#C3C5C7;stroke-width:0.3528}
    .str1 {stroke:#D8DADC;stroke-width:0.3528}
    .str0 {stroke:#D8DADC;stroke-width:0.7056}
    .fil2 {fill:none}
    .fil4 {fill:#1B1C20}
    .fil5 {fill:#98979B}
    .fil6 {fill:#B1CA00}
    .fil1 {fill:#D8DADC}
    .fil0 {fill:#ECEEEF}
    .fil7 {fill:#FDCA00}
    .fil8 {fill:url(#id4)}
    .fil3 {fill:url(#id5)}
   
  </style>
   <clipPath
   id="id0">
    <path
   d="M19.7276 76.3165c56.8483,-1.6669 113.697,-1.7197 170.545,0 0.7185,0.0217 1.2785,0.5894 1.307,1.307 1.7992,45.235 1.5875,90.4701 0,135.705 -0.0251,0.7177 -0.5888,1.307 -1.307,1.307 -16.289,0 -32.578,0 -48.867,0 -0.2088,1.2629 -0.4177,2.5431 -0.626,5.0581 -0.0591,0.7132 -0.5921,1.2675 -1.307,1.307 -22.9817,1.2697 -45.9633,1.2697 -68.9449,0 -0.7149,-0.0395 -1.2477,-0.5912 -1.307,-1.307 -0.2083,-2.515 -0.4175,-3.7952 -0.6263,-5.0581 -16.2889,0 -32.5778,0 -48.8667,0 -0.7182,0 -1.2818,-0.5886 -1.307,-1.307 -1.5876,-45.2353 -1.7991,-90.4704 0,-135.705 0.0285,-0.7183 0.5885,-1.286 1.307,-1.307z"
   id="path9" />
   </clipPath>
   <mask
   id="id1">
  <linearGradient
   id="id2"
   gradientUnits="userSpaceOnUse"
   x1="60.0818"
   y1="107.582"
   x2="141.042"
   y2="172.8">
   <stop
   offset="0"
   style="stop-opacity:1; stop-color:white"
   id="stop13" />
   <stop
   offset="1"
   style="stop-opacity:0; stop-color:white"
   id="stop15" />
  </linearGradient>
    <rect
   style="fill:url(#id2)"
   x="35.1214"
   y="91.8732"
   width="130.881"
   height="96.6357"
   id="rect17" />
   </mask>
   <clipPath
   id="id3">
    <path
   d="M69.2576 208.165c23.8281,0 47.6568,0 71.4849,0 0.7187,0 1.3661,0.5938 1.307,1.307 -0.4228,5.1007 -0.8472,5.1217 -1.27,10.2224 -0.0591,0.7133 -0.5918,1.2675 -1.307,1.307 -22.9817,1.27 -45.9633,1.27 -68.9449,0 -0.7152,-0.0395 -1.2477,-0.5909 -1.307,-1.307 -0.4231,-5.1007 -0.847,-5.1217 -1.27,-10.2224 -0.0593,-0.7161 0.5883,-1.307 1.307,-1.307z"
   id="path20" />
   </clipPath>
  <linearGradient
   id="id4"
   gradientUnits="userSpaceOnUse"
   x1="105"
   y1="212.753"
   x2="105"
   y2="213.906">
   <stop
   offset="0"
   style="stop-color:#AEAFB2"
   id="stop23" />
   <stop
   offset="1"
   style="stop-color:#ECEEEF"
   id="stop25" />
  </linearGradient>
  <radialGradient
   id="id5"
   gradientUnits="userSpaceOnUse"
   cx="105"
   cy="142.936"
   r="75.1344"
   fx="105"
   fy="142.936">
   <stop
   offset="0"
   style="stop-color:white"
   id="stop28" />
   <stop
   offset="0.811765"
   style="stop-color:#E1E2E3"
   id="stop30" />
   <stop
   offset="1"
   style="stop-color:#C3C5C7"
   id="stop32" />
  </radialGradient>
 
  <metadata
   id="CorelCorpID_0Corel-Layer" />
  
  
  
  
  
  
  
  
  
  
  
  
  
  
  
  
  
  
  
  
 <linearGradient
   inkscape:collect="always"
   xlink:href="#id4"
   id="linearGradient2243"
   gradientUnits="userSpaceOnUse"
   x1="105"
   y1="212.753"
   x2="105"
   y2="213.906" /><radialGradient
   inkscape:collect="always"
   xlink:href="#id5"
   id="radialGradient2258"
   gradientUnits="userSpaceOnUse"
   cx="105"
   cy="142.936"
   fx="105"
   fy="142.936"
   r="75.1344" />
   
  
    
    
   <filter
   inkscape:collect="always"
   id="filter4067"><feGaussianBlur
     inkscape:collect="always"
     stdDeviation="1"
     id="feGaussianBlur4069" /></filter></defs>
 <path
   style="fill:#eceeef"
   id="path36"
   d="M 19.7276,76.3165 C 76.5759,74.6496 133.4246,74.5968 190.2726,76.3165 C 190.9911,76.3382 191.5511,76.9059 191.5796,77.6235 C 193.3788,122.8585 193.1671,168.0936 191.5796,213.3285 C 191.5545,214.0462 190.9908,214.6355 190.2726,214.6355 C 173.9836,214.6355 157.6946,214.6355 141.4056,214.6355 C 141.1968,215.8984 140.9879,217.1786 140.7796,219.6936 C 140.7205,220.4068 140.1875,220.9611 139.4726,221.0006 C 116.4909,222.2703 93.5093,222.2703 70.5277,221.0006 C 69.8128,220.9611 69.28,220.4094 69.2207,219.6936 C 69.0124,217.1786 68.8032,215.8984 68.5944,214.6355 C 52.3055,214.6355 36.0166,214.6355 19.7277,214.6355 C 19.0095,214.6355 18.4459,214.0469 18.4207,213.3285 C 16.8331,168.0932 16.6216,122.8581 18.4207,77.6235 C 18.4492,76.9052 19.0092,76.3375 19.7277,76.3165 L 19.7276,76.3165 z "
   class="fil0" /><g
   id="g38"
   transform="translate(0,-0.564444)">
   <g
   id="_305148432">
    <path
   style="fill:#d8dadc"
   d="M 71.2233,209.569 C 94.5876,209.569 117.9525,209.569 141.3168,209.569 C 142.0215,209.569 142.6563,210.151 142.5984,210.8506 C 142.1836,215.852 141.7679,215.8726 141.3531,220.874 C 141.2951,221.5736 140.7728,222.1168 140.0715,222.1555 C 117.5371,223.4008 95.0029,223.4008 72.4686,222.1555 C 71.7673,222.1168 71.2452,221.5761 71.187,220.874 C 70.7721,215.8726 70.3565,215.852 69.9417,210.8506 C 69.8836,210.1484 70.5186,209.569 71.2233,209.569 L 71.2233,209.569 z "
   class="fil1"
   id="_189198024" />
    <path
   style="fill:#d8dadc"
   d="M 40.602187,209.569 C 63.966487,209.569 146.03361,209.569 169.39791,209.569 C 170.10261,209.569 170.73741,210.151 170.67951,210.8506 C 170.26471,215.852 169.84901,215.8726 169.43421,220.874 C 169.37621,221.5736 168.85391,222.1168 168.15261,222.1555 C 145.61821,223.4008 64.381787,223.4008 41.847487,222.1555 C 41.146187,222.1168 40.624087,221.5761 40.565887,220.874 C 40.150987,215.8726 39.735387,215.852 39.320587,210.8506 C 39.262487,210.1484 39.897487,209.569 40.602187,209.569 L 40.602187,209.569 z "
   class="fil1"
   id="_303567312"
   sodipodi:nodetypes="csssccsscc" />
   </g>
  </g><path
   style="fill:none;stroke:#d8dadc;stroke-width:0.70560002"
   id="path43"
   d="M 19.7276,76.3165 C 76.5759,74.6496 133.4246,74.5968 190.2726,76.3165 C 190.9911,76.3382 191.5511,76.9059 191.5796,77.6235 C 193.3788,122.8585 193.1671,168.0936 191.5796,213.3285 C 191.5545,214.0462 190.9908,214.6355 190.2726,214.6355 C 173.9836,214.6355 185.91682,214.6355 169.62782,214.6355 C 169.41902,215.8984 169.21012,217.1786 169.00182,219.6936 C 168.94272,220.4068 168.40972,220.9611 167.69482,221.0006 C 144.71312,222.2703 65.287077,222.2703 42.305477,221.0006 C 41.590577,220.9611 41.057777,220.4094 40.998477,219.6936 C 40.790177,217.1786 40.580977,215.8984 40.372177,214.6355 C 24.083277,214.6355 36.0166,214.6355 19.7277,214.6355 C 19.0095,214.6355 18.4459,214.0469 18.4207,213.3285 C 16.8331,168.0932 16.6216,122.8581 18.4207,77.6235 C 18.4492,76.9052 19.0092,76.3375 19.7277,76.3165 L 19.7276,76.3165 z "
   class="fil2 str0"
   sodipodi:nodetypes="ccccscsssscssccc" /><path
   style="fill:url(#radialGradient2258)"
   id="path45"
   d="M 31.2831,87.556 L 178.7171,87.556 C 179.3264,87.556 179.8247,88.0547 179.8247,88.6636 L 179.8247,197.2086 C 179.8247,197.8175 179.326,198.3162 178.7171,198.3162 L 31.2831,198.3162 C 30.6742,198.3162 30.1755,197.8179 30.1755,197.2086 L 30.1755,88.6636 C 30.1755,88.0543 30.6738,87.556 31.2831,87.556 L 31.2831,87.556 z "
   class="fil3" /><path
   style="fill:#1b1c20"
   id="path47"
   d="M 34.3613,89.8685 L 175.6393,89.8685 C 176.2231,89.8685 176.7007,90.3464 176.7007,90.9299 L 176.7007,194.9429 C 176.7007,195.5264 176.2227,196.0043 175.6393,196.0043 L 34.3613,196.0043 C 33.7778,196.0043 33.2999,195.5268 33.2999,194.9429 L 33.2999,90.9299 C 33.2999,90.346 33.7775,89.8685 34.3613,89.8685 z "
   class="fil4" /><path
   id="path49"
   d="M 36.1348,91.9113 C 79.4113,91.9113 122.6877,91.9113 165.9638,91.9113 C 36.1348,91.9112 35.1588,92.8866 35.1588,188.4708 C 35.1588,156.6094 35.1588,124.748 35.1588,92.8866 C 35.1588,92.3501 35.5976,91.9113 36.1341,91.9113 L 36.1348,91.9113 z "
   style="fill:#98979b;filter:url(#filter4067)"
   class="fil5" /><path
   style="fill:#eceeef"
   id="path51"
   d="M 41.035377,208.165 C 64.863477,208.165 145.13662,208.165 168.96472,208.165 C 169.68342,208.165 170.33082,208.7588 170.27172,209.472 C 169.84892,214.5727 169.42452,214.5937 169.00172,219.6944 C 168.94262,220.4077 168.40992,220.9619 167.69472,221.0014 C 144.71302,222.2714 65.286977,222.2714 42.305377,221.0014 C 41.590177,220.9619 41.057677,220.4105 40.998377,219.6944 C 40.575277,214.5937 40.151377,214.5727 39.728377,209.472 C 39.669077,208.7559 40.316677,208.165 41.035377,208.165 z "
   class="fil0"
   sodipodi:nodetypes="csssssssc" /><path
   style="fill:none"
   id="path58"
   d="M 69.2576,208.165 C 93.0857,208.165 116.9144,208.165 140.7425,208.165 C 141.4612,208.165 142.1086,208.7588 142.0495,209.472 C 141.6267,214.5727 141.2023,214.5937 140.7795,219.6944 C 140.7204,220.4077 140.1877,220.9619 139.4725,221.0014 C 116.4908,222.2714 93.5092,222.2714 70.5276,221.0014 C 69.8124,220.9619 69.2799,220.4105 69.2206,219.6944 C 68.7975,214.5937 68.3736,214.5727 67.9506,209.472 C 67.8913,208.7559 68.5389,208.165 69.2576,208.165 z "
   class="fil2" /><circle
   style="fill:none;stroke:#c3c5c7;stroke-width:0.35280001"
   sodipodi:ry="0.6498"
   sodipodi:rx="0.6498"
   sodipodi:cy="217.70399"
   sodipodi:cx="74.063202"
   id="circle60"
   r="0.6498"
   cy="217.70399"
   cx="74.063202"
   class="fil2 str2"
   transform="translate(-28.22221,0)" /><circle
   style="fill:none;stroke:#c3c5c7;stroke-width:0.35280001"
   sodipodi:ry="0.95476902"
   sodipodi:rx="0.95476902"
   sodipodi:cy="217.70399"
   sodipodi:cx="82.012299"
   id="circle62"
   r="0.95476902"
   cy="217.70399"
   cx="82.012299"
   class="fil2 str2"
   transform="translate(-28.22221,0)" /><circle
   style="fill:#b1ca00;stroke:#98979b;stroke-width:0.17640001"
   sodipodi:ry="0.3249"
   sodipodi:rx="0.3249"
   sodipodi:cy="217.70399"
   sodipodi:cx="87.514702"
   id="circle64"
   r="0.3249"
   cy="217.70399"
   cx="87.514702"
   class="fil6 str3"
   transform="translate(-28.22221,0)" /><circle
   style="fill:#fdca00;stroke:#98979b;stroke-width:0.17640001"
   sodipodi:ry="0.3249"
   sodipodi:rx="0.3249"
   sodipodi:cy="217.70399"
   sodipodi:cx="90.034698"
   id="circle66"
   r="0.3249"
   cy="217.70399"
   cx="90.034698"
   class="fil7 str3"
   transform="translate(-28.22221,0)" /><path
   style="fill:url(#linearGradient2243)"
   id="path68"
   d="M 76.307711,212.753 C 87.910011,212.753 122.09009,212.753 133.69239,212.753 C 127.91419,213.1373 110.8981,213.906 105.0691,213.906 C 99.1944,213.906 82.131811,213.1373 76.307711,212.753 z "
   class="fil8"
   sodipodi:nodetypes="ccsc" /><circle
   style="fill:#b1ca00;stroke:#98979b;stroke-width:0.17640001"
   sodipodi:ry="0.6498"
   sodipodi:rx="0.6498"
   sodipodi:cy="215.05901"
   sodipodi:cx="105"
   id="circle70"
   r="0.6498"
   cy="215.05901"
   cx="105"
   class="fil6 str3" /><circle
   style="fill:none;stroke:#c3c5c7;stroke-width:0.35280001"
   sodipodi:ry="0.95476902"
   sodipodi:rx="0.95476902"
   sodipodi:cy="217.70399"
   sodipodi:cx="132.065"
   id="circle72"
   r="0.95476902"
   cy="217.70399"
   cx="132.065"
   class="fil2 str2"
   transform="translate(28.22221,0)" /><circle
   style="fill:none;stroke:#c3c5c7;stroke-width:0.35280001"
   sodipodi:ry="0.95476902"
   sodipodi:rx="0.95476902"
   sodipodi:cy="217.70399"
   sodipodi:cx="135.519"
   id="circle74"
   r="0.95476902"
   cy="217.70399"
   cx="135.519"
   class="fil2 str2"
   transform="translate(28.22221,0)" /><circle
   style="fill:none;stroke:#c3c5c7;stroke-width:0.35280001"
   sodipodi:ry="0.95476902"
   sodipodi:rx="0.95476902"
   sodipodi:cy="217.70399"
   sodipodi:cx="120.229"
   id="circle76"
   r="0.95476902"
   cy="217.70399"
   cx="120.229"
   class="fil2 str2"
   transform="translate(28.22221,0)" /><circle
   style="fill:none;stroke:#c3c5c7;stroke-width:0.35280001"
   sodipodi:ry="0.95476902"
   sodipodi:rx="0.95476902"
   sodipodi:cy="217.70399"
   sodipodi:cx="123.684"
   id="circle78"
   r="0.95476902"
   cy="217.70399"
   cx="123.684"
   class="fil2 str2"
   transform="translate(28.22221,0)" /><circle
   style="fill:none;stroke:#c3c5c7;stroke-width:0.35280001"
   sodipodi:ry="1.06453"
   sodipodi:rx="1.06453"
   sodipodi:cy="217.70399"
   sodipodi:cx="127.874"
   id="circle80"
   r="1.06453"
   cy="217.70399"
   cx="127.874"
   class="fil2 str2"
   transform="translate(28.22221,0)" />
<path
   style="fill:#eceeef;stroke:#d8dadc;stroke-width:0.70555556;stroke-miterlimit:4;stroke-dasharray:none;stroke-opacity:1"
   d="M 105.00422,216.29193 C 103.08628,216.29193 101.32021,218.72611 99.941864,222.14296 C 103.31392,222.1703 106.68571,222.1703 110.05776,222.14296 C 108.67942,218.72611 106.92217,216.29193 105.00422,216.29193 z "
   id="path2274"
   sodipodi:nodetypes="cccc" /><ellipse
   style="fill:#d8dadc;stroke:#d8dadc;stroke-width:0.35280001"
   sodipodi:ry="3.7219999"
   sodipodi:rx="1.2276"
   sodipodi:cy="221.953"
   sodipodi:cx="105"
   ry="3.7219999"
   rx="1.2276"
   cy="221.953"
   cx="105"
   class="fil1 str1"
   id="_23469352"
   transform="matrix(0.660655,0,0,0.452641,35.63124,118.5641)" /></svg>